<?xml version="1.0" encoding="UTF-8"?>
<svg width="160px" height="26px" viewBox="0 0 160 26" version="1.1" xmlns="http://www.w3.org/2000/svg" xmlns:xlink="http://www.w3.org/1999/xlink">
    <!-- Generator: Sketch 52.6 (67491) - http://www.bohemiancoding.com/sketch -->
    <title>Launch-logo</title>
    <desc>Created with Sketch.</desc>
    <g id="Page-1" stroke="none" stroke-width="1" fill="none" fill-rule="evenodd">
        <g id="Launch-logo">
            <g id="Group" transform="translate(22.386831, 0.000000)" fill="#F65F34">
                <path d="M21.7854393,25.20375 L13.211345,7.15 L4.70811111,25.20375 L-1.77635684e-14,25.20375 L11.1539095,3.55271368e-15 L15.2823045,3.55271368e-15 L26.436214,25.20375 L21.7854393,25.20375 Z" id="Combined-Shape"></path>
                <polygon id="Triangle" fill-rule="nonzero" points="13.1687243 19.5 15.8024691 25.35 10.5349794 25.35"></polygon>
            </g>
            <path d="M-2.84217094e-14,0.429 L4.45432099,0.429 L4.45432099,21.45 L17.78107,21.45 L17.78107,25.454 L-2.84217094e-14,25.454 L-2.84217094e-14,0.429 Z M63.4205761,25.84725 C61.7788669,25.84725 60.2941081,25.6148773 58.9662551,25.150125 C57.6384021,24.6853727 56.5037084,23.9882546 55.5621399,23.05875 C54.6205714,22.1292454 53.8962988,20.9792985 53.3893004,19.608875 C52.882302,18.2384515 52.6288066,16.6475924 52.6288066,14.83625 L52.6288066,0.429 L57.0831275,0.429 L57.0831275,14.6575 C57.0831275,16.9931783 57.6504744,18.7687439 58.7851852,19.98425 C59.9198959,21.1997561 61.4891532,21.8075 63.4930041,21.8075 C65.4727122,21.8075 67.0298983,21.2235892 68.164609,20.05575 C69.2993198,18.8879108 69.8666666,17.1480949 69.8666666,14.83625 L69.8666666,0.429 L74.3209876,0.429 L74.3209876,14.62175 C74.3209876,16.4807593 74.0614566,18.1133263 73.5423868,19.5195 C73.023317,20.9256737 72.2930088,22.0994536 71.3514403,23.040875 C70.4098718,23.9822964 69.2691425,24.6853727 67.9292181,25.150125 C66.5892937,25.6148773 65.0864281,25.84725 63.4205761,25.84725 Z M81.4419753,0.429 L85.5703703,0.429 L99.1506172,17.732 L99.1506172,0.429 L103.53251,0.429 L103.53251,25.454 L99.8024691,25.454 L85.8238683,7.6505 L85.8238683,25.454 L81.4419753,25.454 L81.4419753,0.429 Z M122.821399,25.883 C120.962405,25.883 119.248293,25.5493367 117.679012,24.882 C116.109731,24.2146633 114.75172,23.3030474 113.604938,22.147125 C112.458156,20.9912026 111.558851,19.6267579 110.906996,18.05375 C110.255141,16.4807421 109.929218,14.8005089 109.929218,13.013 L109.929218,12.9415 C109.929218,11.1539911 110.249105,9.47971614 110.888889,7.918625 C111.528673,6.35753386 112.427978,4.9871309 113.586831,3.807375 C114.745685,2.6276191 116.121803,1.6981284 117.715226,1.018875 C119.30865,0.339621604 121.071047,-8.17124146e-15 123.002469,-3.55271368e-15 C124.161323,-8.17124146e-15 125.217553,0.09533238 126.171193,0.286 C127.124833,0.47666762 127.999996,0.744789939 128.796708,1.090375 C129.59342,1.43596006 130.329763,1.84708095 131.005761,2.32375 C131.681759,2.80041905 132.321533,3.32474714 132.925103,3.89675 L130.064197,7.15 C129.050201,6.22049535 127.975863,5.46975286 126.841152,4.89775 C125.706441,4.32574714 124.414822,4.03975 122.966255,4.03975 C121.759116,4.03975 120.642529,4.27212268 119.616461,4.736875 C118.590393,5.20162732 117.703159,5.83320434 116.954732,6.631625 C116.206306,7.43004566 115.626888,8.36549464 115.216461,9.438 C114.806034,10.5105054 114.600823,11.6544939 114.600823,12.87 L114.600823,12.9415 C114.600823,14.1570061 114.806034,15.3069529 115.216461,16.391375 C115.626888,17.4757971 116.206306,18.4231626 116.954732,19.2335 C117.703159,20.0438374 118.590393,20.6813727 119.616461,21.146125 C120.642529,21.6108773 121.759116,21.84325 122.966255,21.84325 C124.511393,21.84325 125.839226,21.5512946 126.949794,20.967375 C128.060362,20.3834554 129.158842,19.591005 130.245267,18.59 L133.106173,21.45 C132.454318,22.1411701 131.772294,22.7548723 131.060082,23.291125 C130.34787,23.8273777 129.581348,24.292123 128.760494,24.685375 C127.939639,25.078627 127.040334,25.3765407 126.062551,25.579125 C125.084769,25.7817093 124.004395,25.883 122.821399,25.883 Z M138.778601,0.429 L143.232922,0.429 L143.232922,10.83225 L155.328395,10.83225 L155.328395,0.429 L159.782716,0.429 L159.782716,25.454 L155.328395,25.454 L155.328395,14.90775 L143.232922,14.90775 L143.232922,25.454 L138.778601,25.454 L138.778601,0.429 Z" id="LAUNCH" fill="#1E2031"></path>
        </g>
    </g>
</svg>